<?xml version="1.0" encoding="UTF-8" standalone="no"?>
<!-- Created with Inkscape (http://www.inkscape.org/) -->

<svg
   xmlns:dc="http://purl.org/dc/elements/1.1/"
   xmlns:cc="http://creativecommons.org/ns#"
   xmlns:rdf="http://www.w3.org/1999/02/22-rdf-syntax-ns#"
   xmlns:svg="http://www.w3.org/2000/svg"
   xmlns="http://www.w3.org/2000/svg"
   xmlns:sodipodi="http://sodipodi.sourceforge.net/DTD/sodipodi-0.dtd"
   xmlns:inkscape="http://www.inkscape.org/namespaces/inkscape"
   version="1.1"
   id="svg815"
   width="879.38617"
   height="793.66901"
   viewBox="0 0 879.38617 793.66901"
   sodipodi:docname="horse3.svg"
   inkscape:version="0.92.4 (5da689c313, 2019-01-14)">
  <metadata
     id="metadata821">
    <rdf:RDF>
      <cc:Work
         rdf:about="">
        <dc:format>image/svg+xml</dc:format>
        <dc:type
           rdf:resource="http://purl.org/dc/dcmitype/StillImage" />
        <dc:title></dc:title>
      </cc:Work>
    </rdf:RDF>
  </metadata>
  <defs
     id="defs819" />
  <sodipodi:namedview
     pagecolor="#ffffff"
     bordercolor="#666666"
     borderopacity="1"
     objecttolerance="10"
     gridtolerance="10"
     guidetolerance="10"
     inkscape:pageopacity="0"
     inkscape:pageshadow="2"
     inkscape:window-width="1366"
     inkscape:window-height="705"
     id="namedview817"
     showgrid="false"
     inkscape:zoom="0.59949622"
     inkscape:cx="437.90957"
     inkscape:cy="453.38327"
     inkscape:window-x="-8"
     inkscape:window-y="-8"
     inkscape:window-maximized="1"
     inkscape:current-layer="svg815" />
  <path
     style="fill:#000000"
     d="m 498.30853,793.39324 c 1.1,-0.26131 5.6,-1.16775 10,-2.01431 16.59193,-3.19228 25.74967,-8.1318 29.5215,-15.92336 2.63145,-5.43585 2.25217,-9.91015 -1.30083,-15.34575 l -2.35958,-3.60983 2.31946,-3.39788 c 4.15706,-6.0899 2.76618,-13.69363 -4.654,-25.44265 -4.81307,-7.62096 -9.09202,-11.64548 -16.22451,-15.25978 -7.52611,-3.81377 -22.8715,-7.41827 -34.47085,-8.0969 l -10.16882,-0.59494 -6.83118,-6.65141 c -9.04677,-8.80869 -16.96882,-14.11058 -33.74882,-22.58663 -17.01379,-8.59415 -18.09298,-9.99628 -18.06423,-23.46981 0.0311,-14.56524 5.93615,-28.92632 23.3843,-56.87037 13.87617,-22.22337 22.36971,-36.72036 27.5082,-46.9517 l 4.45978,-8.87996 9.81479,-0.57065 c 21.43958,-1.24653 51.05951,-9.18216 75.63083,-20.26265 31.6508,-14.27298 62.0625,-35.35485 89.88051,-62.30655 l 12.81805,-12.41887 10.2427,1.75419 c 21.71587,3.71913 49.50765,3.04418 70.4223,-1.71027 l 9.17959,-2.08676 5.52302,2.70216 c 6.98847,3.41914 13.85348,10.98475 16.69591,18.3998 2.74009,7.14805 2.97349,20.01401 0.58164,32.0621 -0.91287,4.59826 -1.65976,11.18295 -1.65976,14.63265 v 6.27218 l -5.44936,2.66612 c -6.27795,3.07152 -10.52402,8.21489 -13.63855,16.52073 -1.8933,5.04908 -2.05029,7.26266 -1.74621,24.62186 0.3317,18.93601 0.35583,19.11619 3.33412,24.90298 3.53794,6.87418 6.65984,9.46651 12.31361,10.22483 12.6655,1.69881 28.80677,-16.39425 32.29654,-36.20182 1.71827,-9.7527 7.57887,-21.06315 15.23934,-29.41063 8.10318,-8.82988 10.07754,-14.4521 9.45356,-26.92009 -0.36649,-7.32297 -1.06108,-10.1446 -4.47267,-18.16928 -4.8446,-11.39538 -6.75189,-18.8129 -8.75243,-34.03846 -0.82828,-6.30385 -2.42928,-14.14018 -3.55778,-17.41408 -1.1285,-3.27389 -1.92105,-6.34483 -1.76122,-6.8243 0.15982,-0.47948 3.01842,0.9498 6.35243,3.17617 13.79018,9.20873 22.37527,28.65256 25.87141,58.59454 2.11652,18.12655 2.14512,17.83628 -1.94977,19.78899 -3.84519,1.83364 -6.57838,6.46251 -10.86131,18.39445 -5.77823,16.09773 -5.68005,31.42025 0.27696,43.221 2.93192,5.80812 10.5043,13.73321 15.67868,16.40899 10.70083,5.53361 22.07651,1.1865 27.80566,-10.6257 2.13855,-4.4092 2.81159,-8.31436 4.51501,-26.19748 1.63589,-17.1742 2.46958,-22.16702 4.56067,-27.31324 7.2645,-17.87804 9.143,-39.80519 4.64083,-54.17088 -1.36709,-4.36215 -4.41848,-10.59541 -7.29333,-14.89855 -9.68177,-14.49188 -17.46844,-34.05899 -20.46601,-51.42894 -3.08799,-17.89398 -11.1879,-27.28256 -27.89018,-32.32746 -9.52707,-2.87764 -28.79659,-2.3976 -43.5,1.08365 -16.65618,3.94361 -31.74341,5.26097 -43.39612,3.7892 -15.07942,-1.90457 -14.18487,-1.01106 -14.90086,-14.88349 -1.75787,-34.05927 -9.69514,-61.83127 -23.01576,-80.53064 -9.54803,-13.40345 -18.67015,-35.57663 -22.12156,-53.77102 -1.92995,-10.17385 -2.01881,-28.74183 -0.17077,-35.68256 1.70957,-6.42068 5.9863,-14.38318 9.56884,-17.81548 l 2.72514,-2.61085 5.73201,6.52885 c 11.10041,12.64353 28.33487,24.52233 41.47883,28.58914 5.12174,1.58469 5.50162,1.93653 7.30202,6.76291 3.72089,9.97467 13.38067,17.99917 23.55236,19.56522 9.65769,1.48692 28.39091,-5.21668 34.48999,-12.34208 5.33172,-6.22892 7.25588,-12.86596 7.25588,-25.0279 0,-12.90648 -1.64692,-18.17544 -9.06819,-29.0117 -3.47216,-5.06992 -6.53039,-11.22346 -8.76558,-17.63744 -10.00907,-28.72145 -24.77524,-60.845293 -33.27685,-72.393919 -2.58217,-3.507631 -5.09153,-7.97038 -5.57635,-9.917221 -0.48482,-1.94684 -1.15328,-9.848097 -1.48548,-17.558347 -0.48941,-11.359241 -0.29321,-15.087672 1.03423,-19.653907 0.90102,-3.099399 1.63822,-6.373967 1.63822,-7.276818 C 750.80853,14.877828 746.19828,11 743.02065,11 740.45661,11 740.14186,10.654701 740.14186,7.8417362 740.14186,4.1480072 736.03751,0 732.38265,0 c -4.88686,0 -33.3167,21.098397 -40.89992,30.352713 l -3.64016,4.44234 -4.26702,-1.110576 c -2.48436,-0.646605 -13.04031,-1.10328 -25.26702,-1.093112 -17.82299,0.01482 -22.53522,0.34934 -31.14776,2.211151 -20.4326,4.417003 -39.8539,12.608742 -55.67994,23.485336 -10.6615,7.327209 -21.28091,16.688581 -22.751,20.055792 -1.71567,3.929675 -0.19493,7.757991 3.89596,9.807701 l 3.29581,1.651345 -7.80653,5.838307 c -10.72437,8.020473 -32.76671,30.079933 -40.26134,40.292593 -7.35176,10.01799 -15.77149,26.76028 -16.63504,33.07809 -0.85298,6.24046 1.6848,9.44286 7.48308,9.44286 2.25872,0 4.10676,0.11596 4.10676,0.2577 0,0.14174 -1.34914,2.45033 -2.99808,5.13021 -4.23321,6.87983 -10.28103,20.13508 -13.9018,30.46913 -5.55716,15.86066 -7.33481,27.01482 -7.9986,50.18841 l -0.60152,21 -6.28425,3.09453 c -11.16892,5.49988 -27.72236,8.39842 -59.21575,10.36879 -56.33726,3.52472 -99.87387,19.68462 -127,47.13979 l -8.5,8.6031 -12,0.63694 c -26.3049,1.39623 -50.20971,10.18808 -71.5,26.2967 -14.44358,10.92827 -21.94863,19.36411 -36.20285,40.69282 -21.88548,32.74744 -36.7603,46.57814 -56.10289,52.1648 -4.367923,1.26158 -8.725703,1.59336 -17.596273,1.33969 -12.64375,-0.36156 -14.38734,0.16351 -16.1774,4.87174 -1.24126,3.26474 0.45882,6.93927 4.30449,9.3037 8.12913,4.99802 36.056893,11.95641 48.201143,12.00964 l 5.07378,0.0222 -2.5,1.94154 c -4.58132,3.55793 -20.3627,11.86772 -31.999993,16.8498 -14.98346,6.41461 -38.26224,13.88288 -59.5,19.08871 -9.35,2.29188 -19.2046,4.70895 -21.8991101,5.37127 -8.22031011,2.02057 -11.0491701,8.77127 -5.6226201,13.41763 5.6639601,4.84967 43.7869702,15.68184 71.0217302,20.17996 68.731403,11.35174 117.429593,-3.98902 139.336423,-43.89335 8.58988,-15.64687 12.24812,-31.08575 13.15681,-55.52574 1.40519,-37.79393 4.83488,-50.97274 14.57622,-56.01018 1.55717,-0.80524 3.91563,-1.46408 5.24101,-1.46408 2.40116,0 2.4119,0.0493 2.99553,13.75 0.71013,16.66986 2.42315,24.89083 8.16206,39.17053 11.107,27.6367 32.80669,53.927 63.53194,76.97222 7.72028,5.79054 13.16961,10.64563 14.25118,12.69712 3.17407,6.0205 4.74882,14.48721 4.74882,25.53226 0,13.57121 -1.66595,22.1061 -7.4911,38.37787 -3.13675,8.76207 -4.83508,15.29438 -5.20971,20.03809 -1.80811,22.89538 12.12886,39.79723 37.02827,44.90548 23.66184,4.85436 54.90789,30.99362 69.90252,58.4778 2.1062,3.86052 9.59506,7.52436 21.77002,10.65071 l 8.5,2.18268 3.74831,7.47991 c 4.45858,8.89729 10.53299,16.10295 15.87028,18.82583 4.00946,2.04547 10.89155,3.16179 14.38141,2.33275 z m -8.8072,-17.42025 c -3.19243,-2.51117 -7.96899,-10.77934 -10.19696,-17.65081 -2.1909,-6.75713 -4.03513,-8.26763 -11.35816,-9.30273 -3.33813,-0.47184 -9.29515,-1.87598 -13.23783,-3.12031 -6.53442,-2.0623 -7.39988,-2.6575 -9.78418,-6.72886 -12.70535,-21.6953 -37.03683,-43.80122 -61.61567,-55.97981 -4.4,-2.18016 -10.11578,-4.22831 -12.70173,-4.55146 -11.94474,-1.49262 -22.07671,-7.39647 -25.54326,-14.88393 -4.23196,-9.1407 -3.85279,-14.40244 2.2523,-31.25509 5.23333,-14.44626 7.44767,-24.51242 8.13918,-37 0.74028,-13.3681 -0.60392,-22.86105 -4.76497,-33.65101 -3.62005,-9.38711 -6.30998,-12.34632 -20.67412,-22.74384 -12.24207,-8.86144 -28.86007,-24.38904 -37.20941,-34.76787 -21.6666,-26.93314 -31.30372,-55.0129 -27.93988,-81.40864 1.2522,-9.82586 1.2393,-9.98316 -1.01571,-12.3835 -4.01724,-4.27616 -16.53543,-5.80588 -25.48074,-3.11373 -13.71159,4.12658 -22.06566,16.8868 -25.57803,39.06859 -0.60963,3.85 -1.5198,16.45 -2.02259,28 -0.61978,14.23718 -1.54103,23.7687 -2.8607,29.59741 -3.86083,17.05251 -10.97134,29.849 -22.64229,40.74838 -23.73742,22.16813 -65.7443,27.675 -122.458043,16.05358 -11.59118,-2.3752 -25.23713,-5.99557 -24.68387,-6.54883 0.22335,-0.22335 5.98109,-1.9471 12.79498,-3.83056 32.33709,-8.93846 60.244573,-20.83587 79.072143,-33.70972 14.17778,-9.69443 26.81674,-24.53647 26.81674,-31.49113 0,-1.12717 -0.93266,-3.2351 -2.07258,-4.68427 -2.56746,-3.26399 -7.91618,-3.57547 -11.60268,-0.67566 -4.5771,3.60035 -12.91944,6.04142 -20.61225,6.03142 l -7.21249,-0.009 5.5,-3.13161 c 16.36301,-9.3172 28.92537,-22.82114 48.85189,-52.5138 5.59697,-8.34008 13.37482,-18.58873 17.28411,-22.77476 21.94783,-23.50152 50.99436,-36.20103 84.864,-37.1036 l 12.5,-0.33311 3.45187,-4.31237 c 5.91111,-7.38467 16.2779,-17.23523 22.76025,-21.62687 26.9452,-18.25477 62.14776,-27.59397 115.78788,-30.71842 29.89386,-1.74126 54.06905,-9.10131 64.02359,-19.49174 l 2.97641,-3.10675 0.0185,-20.68429 c 0.014,-15.63024 0.45682,-23.00555 1.81225,-30.1843 4.91937,-26.05434 18.62614,-53.65022 36.09055,-72.66125 4.65415,-5.06631 6.57866,-7.93778 6.57866,-9.81574 0,-6.96561 -5.49513,-9.53656 -15.11549,-7.07193 -3.40054,0.87117 -6.35374,1.41302 -6.56266,1.2041 -0.98581,-0.9858 10.21974,-14.34805 21.09879,-25.15962 13.54982,-13.46577 23.8218,-21.76503 40.62543,-32.823391 16.39469,-10.789238 16.95393,-11.284873 16.95393,-15.025711 0,-4.702015 -2.43629,-7.532673 -7.12909,-8.283081 -4.91543,-0.786009 -4.28127,-1.606254 5.26044,-6.804067 8.44626,-4.601067 20.49792,-8.99778 33.85902,-12.352517 9.68922,-2.432792 12.14894,-2.639277 31.50963,-2.645127 16.6211,-0.005 22.42772,0.354485 27.84696,1.724095 8.5643,2.164465 11.01831,1.216599 14.52265,-5.609406 1.57677,-3.071356 5.22888,-7.184308 10.05338,-11.321965 l 7.57701,-6.49831 0.56128,4.709938 c 0.73217,6.144022 3.78758,8.85173 9.17326,8.129359 l 3.76546,-0.505054 v 3.8131 c 0,2.097206 0.71414,9.366885 1.58698,16.154844 1.31188,10.202334 2.01202,12.861785 4.03891,15.341743 11.16855,13.665015 23.434,39.00206 35.93725,74.23651 3.08209,8.6854 6.05196,14.81423 10.23365,21.11889 6.91612,10.4273 8.86172,17.39926 7.24073,25.94673 -1.5869,8.36768 -3.4845,11.05426 -9.85771,13.9563 -4.08344,1.8594 -7.45738,2.60813 -12.00433,2.66393 -6.04463,0.0742 -6.47319,-0.0845 -9.68383,-3.58547 -1.84761,-2.01471 -3.88959,-5.61471 -4.53772,-8 -2.77235,-10.2029 -2.96347,-10.3852 -13.44614,-12.82551 -11.68208,-2.71953 -27.56231,-13.64835 -38.52262,-26.51139 -2.81186,-3.3 -6.37084,-7.4625 -7.90885,-9.25 -3.80686,-4.42441 -7.187,-4.27072 -14.8385,0.67468 -18.3048,11.83097 -26.3165,36.41486 -21.81308,66.93348 3.40818,23.09647 12.87037,47.41381 25.84164,66.41171 12.68259,18.57509 18.65546,41.19795 20.34568,77.06141 0.53825,11.42088 1.07226,15.29225 2.32231,16.836 0.93164,1.15053 5.2328,3.08834 10.09448,4.54788 6.92437,2.0788 11.24879,2.63289 23.68331,3.03458 16.54487,0.53446 25.12156,-0.34991 42.78784,-4.41199 9.20402,-2.11632 12.81207,-2.46327 22.09855,-2.12496 9.59611,0.34959 11.86035,0.77703 16.72588,3.15751 3.09502,1.51425 6.54623,4.04369 7.66936,5.62098 1.12312,1.57728 3.15072,7.88033 4.50578,14.00677 4.81587,21.77345 11.30938,37.98545 21.73176,54.25658 6.29373,9.82559 7.76867,14.80826 7.76867,26.24434 0,9.94285 -2.08385,19.87029 -6.47481,30.84596 -2.12917,5.32208 -2.94221,10.24535 -4.57784,27.72041 -1.09388,11.68694 -2.54203,22.37424 -3.21811,23.74958 -2.17521,4.42494 -4.10385,4.86472 -8.51943,1.94263 -10.97531,-7.26312 -12.95462,-22.47689 -5.45823,-41.9541 2.59398,-6.73972 2.9895,-7.22122 7.03878,-8.569 7.4012,-2.46345 7.78423,-3.84659 6.398,-23.10318 -1.35641,-18.84229 -3.80092,-32.03242 -8.30832,-44.83027 -9.62706,-27.33409 -27.97674,-43.301 -49.76287,-43.301 -4.2017,0 -7.43658,0.53542 -8.73668,1.44605 -4.51436,3.16198 -22.39996,11.45506 -31.23419,14.48248 -34.11447,11.69072 -71.47177,11.85207 -104.41178,0.45098 -17.99623,-6.2288 -33.75428,-14.82688 -52.59453,-28.69722 -8.30788,-6.11633 -12.76291,-6.24595 -15.75576,-0.45842 -2.42915,4.69746 -0.45167,7.83986 9.49247,15.08438 17.12004,12.47232 33.24614,21.28581 49.54322,27.07713 1.73614,0.61695 1.54469,1.07267 -2,4.76079 -6.20274,6.4537 -25.05092,22.57324 -35.23089,30.13053 -30.82896,22.88644 -67.36156,40.07678 -100.18903,47.14373 -13.81802,2.97469 -25,4.26179 -25,2.87763 0,-0.53798 0.90331,-4.51003 2.00735,-8.82678 4.19946,-16.41973 3.60018,-35.91495 -1.62416,-52.83579 -3.71386,-12.02865 -9.28296,-15.82663 -14.92864,-10.18094 -3.07412,3.07411 -3.06205,4.45762 0.13331,15.28034 3.22129,10.91054 4.24284,26.81491 2.44038,37.99395 -2.94731,18.27946 -14.14356,41.52089 -38.91046,80.77116 -11.9329,18.91113 -19.2185,33.09291 -23.3121,45.37819 -2.90495,8.71803 -3.21078,10.79594 -3.25589,22.12181 -0.0438,10.98971 0.22803,13.10412 2.24956,17.5 3.68702,8.01753 8.43196,12.08997 21.06733,18.08149 15.5776,7.38667 26.95868,15.27904 35.50001,24.618 l 7.13331,7.79944 6.5,0.003 c 15.85949,0.008 35.28333,4.21503 42.19921,9.13957 3.08595,2.19739 9.80079,11.51163 9.80079,13.5948 0,0.69484 -1.05526,1.26335 -2.34501,1.26335 -2.58676,0 -5.05694,2.31267 -6.08823,5.70002 -0.76479,2.51198 0.83532,6.01292 6.7222,14.70779 3.81408,5.63337 3.91306,5.9713 2.13071,7.27459 -3.27117,2.39194 -20.51937,6.90573 -27.53481,7.20576 -1.43833,0.0615 -3.77476,-0.80031 -5.19206,-1.91516 z m 273.16266,-201.723 c -0.60228,-1.5125 -1.32199,-8.15 -1.59937,-14.75 -0.89731,-21.35112 2.01998,-27.89576 13.10519,-29.40005 3.21907,-0.43684 6.51193,-1.57824 7.73275,-2.68039 1.93014,-1.74251 2.05481,-2.51907 1.35178,-8.41956 -1.02463,-8.5996 -0.62401,-17.95551 1.12682,-26.31538 1.65699,-7.91177 1.83634,-23.19761 0.34796,-29.65681 -1.8239,-7.91531 -6.93964,-17.12094 -12.94777,-23.29916 l -5.75763,-5.92062 3.64241,-1.51801 c 2.00332,-0.8349 5.76956,-2.59405 8.36942,-3.90922 l 4.72702,-2.3912 1.95286,3.82792 c 2.46979,4.84118 4.67885,14.14878 6.09548,25.68248 1.53446,12.49311 4.44563,23.67033 8.46479,32.5 4.05104,8.8997 4.99565,13.42802 4.07782,19.54857 -0.55663,3.71183 -1.85024,5.83442 -7.1253,11.69133 -8.28043,9.19378 -16.10425,24.4676 -17.46877,34.10287 -1.11748,7.8908 -3.75986,13.90575 -8.58544,19.54335 -4.1206,4.81399 -6.00027,5.15535 -7.51002,1.36388 z"
     id="path827"
     inkscape:connector-curvature="0" />
</svg>
